HIERARCHY
ROOT Hips
{
  OFFSET -245.348 73.1358 1691.41
  CHANNELS 6 Xposition Yposition Zposition Zrotation Xrotation Yrotation
  JOINT Spine
  {
    OFFSET -3.79245e-05 8 7.61501e-05
    CHANNELS 6 Xposition Yposition Zposition Zrotation Xrotation Yrotation
    JOINT Spine1
    {
      OFFSET -0.000713421 8 0.000617685
      CHANNELS 6 Xposition Yposition Zposition Zrotation Xrotation Yrotation
      JOINT Spine2
      {
        OFFSET -0.00189197 8 0.00140016
        CHANNELS 6 Xposition Yposition Zposition Zrotation Xrotation Yrotation
        JOINT Spine3
        {
          OFFSET 0 8 0
          CHANNELS 6 Xposition Yposition Zposition Zrotation Xrotation Yrotation
          JOINT Neck
          {
            OFFSET 0.000105419 17.0001 -0.000258884
            CHANNELS 6 Xposition Yposition Zposition Zrotation Xrotation Yrotation
            JOINT Head
            {
              OFFSET 0.000192165 10.8 -0.00012085
              CHANNELS 6 Xposition Yposition Zposition Zrotation Xrotation Yrotation
              End Site
              {
                OFFSET 0 20.25 0
              }
            }
          }
          JOINT LeftShoulder
          {
            OFFSET 5.0001 17 -0.000190635
            CHANNELS 6 Xposition Yposition Zposition Zrotation Xrotation Yrotation
            JOINT LeftShoulder2
            {
              OFFSET 6.45 0 0
              CHANNELS 6 Xposition Yposition Zposition Zrotation Xrotation Yrotation
              JOINT LeftArm
              {
                OFFSET 6.44999 0 -3.10148e-05
                CHANNELS 6 Xposition Yposition Zposition Zrotation Xrotation Yrotation
                JOINT LeftForeArm
                {
                  OFFSET 0.00339054 -32.3999 -1.99776
                  CHANNELS 6 Xposition Yposition Zposition Zrotation Xrotation Yrotation
                  JOINT LeftHand
                  {
                    OFFSET -0.00206409 -25.652 1.99709
                    CHANNELS 6 Xposition Yposition Zposition Zrotation Xrotation Yrotation
                    JOINT LeftHandThumb1
                    {
                      OFFSET -0.50106 -1.49974 2.64909
                      CHANNELS 6 Xposition Yposition Zposition Zrotation Xrotation Yrotation
                      JOINT LeftHandThumb2
                      {
                        OFFSET 0.000933746 -3.79686 3.69264
                        CHANNELS 6 Xposition Yposition Zposition Zrotation Xrotation Yrotation
                        JOINT LeftHandThumb3
                        {
                          OFFSET -0.000956376 -2.99924 2.69734
                          CHANNELS 6 Xposition Yposition Zposition Zrotation Xrotation Yrotation
                          End Site
                          {
                            OFFSET -0.00128161 -2.30071 1.79961
                          }
                        }
                      }
                    }
                    JOINT LeftHandIndex
                    {
                      OFFSET -0.000305894 -1.89988 1.59975
                      CHANNELS 6 Xposition Yposition Zposition Zrotation Xrotation Yrotation
                      JOINT LeftHandIndex1
                      {
                        OFFSET 0.00308512 -8.29655 1.89446
                        CHANNELS 6 Xposition Yposition Zposition Zrotation Xrotation Yrotation
                        JOINT LeftHandIndex2
                        {
                          OFFSET 0.00020825 -4.50003 -1.57734e-05
                          CHANNELS 6 Xposition Yposition Zposition Zrotation Xrotation Yrotation
                          JOINT LeftHandIndex3
                          {
                            OFFSET 0.000292681 -3.39748 -0.0023858
                            CHANNELS 6 Xposition Yposition Zposition Zrotation Xrotation Yrotation
                            End Site
                            {
                              OFFSET -0.000998331 -2.60016 -0.00197602
                            }
                          }
                        }
                      }
                    }
                    JOINT LeftHandMiddle
                    {
                      OFFSET -0.250602 -2.20011 0.400246
                      CHANNELS 6 Xposition Yposition Zposition Zrotation Xrotation Yrotation
                      JOINT LeftHandMiddle1
                      {
                        OFFSET -0.00413695 -8.30031 0.99851
                        CHANNELS 6 Xposition Yposition Zposition Zrotation Xrotation Yrotation
                        JOINT LeftHandMiddle2
                        {
                          OFFSET 0.000995701 -4.64885 -0.00400114
                          CHANNELS 6 Xposition Yposition Zposition Zrotation Xrotation Yrotation
                          JOINT LeftHandMiddle3
                          {
                            OFFSET 0.000300871 -3.29947 0
                            CHANNELS 6 Xposition Yposition Zposition Zrotation Xrotation Yrotation
                            End Site
                            {
                              OFFSET 0.0047134 -2.69746 0.0133012
                            }
                          }
                        }
                      }
                    }
                    JOINT LeftHandRing
                    {
                      OFFSET -0.50283 -2.15001 -0.801174
                      CHANNELS 6 Xposition Yposition Zposition Zrotation Xrotation Yrotation
                      JOINT LeftHandRing1
                      {
                        OFFSET -0.000792674 -7.75096 -0.198528
                        CHANNELS 6 Xposition Yposition Zposition Zrotation Xrotation Yrotation
                        JOINT LeftHandRing2
                        {
                          OFFSET 0.00422917 -3.79936 0.00118618
                          CHANNELS 6 Xposition Yposition Zposition Zrotation Xrotation Yrotation
                          JOINT LeftHandRing3
                          {
                            OFFSET 0.00070361 -3.40001 -0.000802276
                            CHANNELS 6 Xposition Yposition Zposition Zrotation Xrotation Yrotation
                            End Site
                            {
                              OFFSET 5.30114e-05 -2.60003 -8.44047e-05
                            }
                          }
                        }
                      }
                    }
                    JOINT LeftHandPinky
                    {
                      OFFSET -0.751655 -1.75063 -1.84944
                      CHANNELS 6 Xposition Yposition Zposition Zrotation Xrotation Yrotation
                      JOINT LeftHandPinky1
                      {
                        OFFSET 6.58348e-05 -7.1493 -1.00189
                        CHANNELS 6 Xposition Yposition Zposition Zrotation Xrotation Yrotation
                        JOINT LeftHandPinky2
                        {
                          OFFSET 0.000153863 -3.00014 1.73988e-05
                          CHANNELS 6 Xposition Yposition Zposition Zrotation Xrotation Yrotation
                          JOINT LeftHandPinky3
                          {
                            OFFSET -0.000727592 -2.34874 -0.00279127
                            CHANNELS 6 Xposition Yposition Zposition Zrotation Xrotation Yrotation
                            End Site
                            {
                              OFFSET 0.00136816 -2.09571 0.000188722
                            }
                          }
                        }
                      }
                    }
                  }
                }
              }
            }
          }
          JOINT RightShoulder
          {
            OFFSET -4.9999 17 -0.000302767
            CHANNELS 6 Xposition Yposition Zposition Zrotation Xrotation Yrotation
            JOINT RightShoulder2
            {
              OFFSET -6.45 0 0
              CHANNELS 6 Xposition Yposition Zposition Zrotation Xrotation Yrotation
              JOINT RightArm
              {
                OFFSET -6.45002 -6.38431e-05 -0.000170111
                CHANNELS 6 Xposition Yposition Zposition Zrotation Xrotation Yrotation
                JOINT RightForeArm
                {
                  OFFSET -0.0059747 -32.3982 -2.00247
                  CHANNELS 6 Xposition Yposition Zposition Zrotation Xrotation Yrotation
                  JOINT RightHand
                  {
                    OFFSET 0.000176636 -25.6494 2.00023
                    CHANNELS 6 Xposition Yposition Zposition Zrotation Xrotation Yrotation
                    JOINT RightHandThumb1
                    {
                      OFFSET 0.497368 -1.49971 2.64835
                      CHANNELS 6 Xposition Yposition Zposition Zrotation Xrotation Yrotation
                      JOINT RightHandThumb2
                      {
                        OFFSET -0.00148672 -3.80214 3.69602
                        CHANNELS 6 Xposition Yposition Zposition Zrotation Xrotation Yrotation
                        JOINT RightHandThumb3
                        {
                          OFFSET 0.00552339 -2.99586 2.69398
                          CHANNELS 6 Xposition Yposition Zposition Zrotation Xrotation Yrotation
                          End Site
                          {
                            OFFSET -0.00270753 -2.29643 1.80181
                          }
                        }
                      }
                    }
                    JOINT RightHandIndex
                    {
                      OFFSET 0.000541062 -1.89913 1.59981
                      CHANNELS 6 Xposition Yposition Zposition Zrotation Xrotation Yrotation
                      JOINT RightHandIndex1
                      {
                        OFFSET 0.00498804 -8.30113 1.90426
                        CHANNELS 6 Xposition Yposition Zposition Zrotation Xrotation Yrotation
                        JOINT RightHandIndex2
                        {
                          OFFSET -0.00506552 -4.49909 -0.000515123
                          CHANNELS 6 Xposition Yposition Zposition Zrotation Xrotation Yrotation
                          JOINT RightHandIndex3
                          {
                            OFFSET -0.00316225 -3.40072 0.000822771
                            CHANNELS 6 Xposition Yposition Zposition Zrotation Xrotation Yrotation
                            End Site
                            {
                              OFFSET -0.000428671 -2.59939 -0.00127643
                            }
                          }
                        }
                      }
                    }
                    JOINT RightHandMiddle
                    {
                      OFFSET 0.248758 -2.19807 0.399107
                      CHANNELS 6 Xposition Yposition Zposition Zrotation Xrotation Yrotation
                      JOINT RightHandMiddle1
                      {
                        OFFSET 0.00228296 -8.30034 1.00206
                        CHANNELS 6 Xposition Yposition Zposition Zrotation Xrotation Yrotation
                        JOINT RightHandMiddle2
                        {
                          OFFSET -0.000171525 -4.65013 -8.74642e-05
                          CHANNELS 6 Xposition Yposition Zposition Zrotation Xrotation Yrotation
                          JOINT RightHandMiddle3
                          {
                            OFFSET -0.00017617 -3.30163 0.0021294
                            CHANNELS 6 Xposition Yposition Zposition Zrotation Xrotation Yrotation
                            End Site
                            {
                              OFFSET 0.000295246 -2.70271 0.00129111
                            }
                          }
                        }
                      }
                    }
                    JOINT RightHandRing
                    {
                      OFFSET 0.494969 -2.14563 -0.806273
                      CHANNELS 6 Xposition Yposition Zposition Zrotation Xrotation Yrotation
                      JOINT RightHandRing1
                      {
                        OFFSET -0.00146499 -7.75619 -0.200064
                        CHANNELS 6 Xposition Yposition Zposition Zrotation Xrotation Yrotation
                        JOINT RightHandRing2
                        {
                          OFFSET -0.000345154 -3.80096 -0.000588942
                          CHANNELS 6 Xposition Yposition Zposition Zrotation Xrotation Yrotation
                          JOINT RightHandRing3
                          {
                            OFFSET 6.71932e-05 -3.40001 5.12238e-05
                            CHANNELS 6 Xposition Yposition Zposition Zrotation Xrotation Yrotation
                            End Site
                            {
                              OFFSET 0.00380075 -2.601 -0.00335925
                            }
                          }
                        }
                      }
                    }
                    JOINT RightHandPinky
                    {
                      OFFSET 0.744755 -1.74958 -1.85384
                      CHANNELS 6 Xposition Yposition Zposition Zrotation Xrotation Yrotation
                      JOINT RightHandPinky1
                      {
                        OFFSET 0.000721856 -7.14965 -1.00081
                        CHANNELS 6 Xposition Yposition Zposition Zrotation Xrotation Yrotation
                        JOINT RightHandPinky2
                        {
                          OFFSET -0.00168823 -2.99999 0.000274659
                          CHANNELS 6 Xposition Yposition Zposition Zrotation Xrotation Yrotation
                          JOINT RightHandPinky3
                          {
                            OFFSET 0.000400755 -2.35106 -0.000282697
                            CHANNELS 6 Xposition Yposition Zposition Zrotation Xrotation Yrotation
                            End Site
                            {
                              OFFSET 0.000873034 -2.10003 0.000396861
                            }
                          }
                        }
                      }
                    }
                  }
                }
              }
            }
          }
        }
      }
    }
  }
  JOINT LeftUpLeg
  {
    OFFSET 7.99999 0 0
    CHANNELS 6 Xposition Yposition Zposition Zrotation Xrotation Yrotation
    JOINT LeftLeg
    {
      OFFSET -2.2659e-05 -45 -0.999959
      CHANNELS 6 Xposition Yposition Zposition Zrotation Xrotation Yrotation
      JOINT LeftFoot
      {
        OFFSET -0.00182747 -40.9996 -2.001
        CHANNELS 6 Xposition Yposition Zposition Zrotation Xrotation Yrotation
        JOINT LeftToeBase
        {
          OFFSET 0.000895449 -7.49992 12.5008
          CHANNELS 6 Xposition Yposition Zposition Zrotation Xrotation Yrotation
          JOINT LeftFootToe
          {
            OFFSET 0 0 4
            CHANNELS 6 Xposition Yposition Zposition Zrotation Xrotation Yrotation
            End Site
            {
              OFFSET 0 0 0
            }
          }
        }
      }
    }
  }
  JOINT RightUpLeg
  {
    OFFSET -7.99999 0 0
    CHANNELS 6 Xposition Yposition Zposition Zrotation Xrotation Yrotation
    JOINT RightLeg
    {
      OFFSET -0.00175526 -45.0005 -1.00095
      CHANNELS 6 Xposition Yposition Zposition Zrotation Xrotation Yrotation
      JOINT RightFoot
      {
        OFFSET 0.00128545 -41.0044 -1.99898
        CHANNELS 6 Xposition Yposition Zposition Zrotation Xrotation Yrotation
        JOINT RightToeBase
        {
          OFFSET 0.0010552 -7.49997 12.5005
          CHANNELS 6 Xposition Yposition Zposition Zrotation Xrotation Yrotation
          JOINT RightFootToe
          {
            OFFSET 0 0 4
            CHANNELS 6 Xposition Yposition Zposition Zrotation Xrotation Yrotation
            End Site
            {
              OFFSET 0 0 0
            }
          }
        }
      }
    }
  }
}
MOTION
Frames:	3
Frame Time:	0.0111111
-237.1 73.7995 1695.26 -7.98829 8.56752 171.754 0 8 2.27374e-13 10.5153 15.8689 -7.81087 -2.84217e-14 8 -2.27374e-13 0.742618 8.45852 2.58301 2.84217e-14 8 -2.27374e-13 0.418552 4.23217 1.30527 0 8 0 0.416745 4.21918 1.30172 0 17 0 -1.62662 -0.824939 -1.03724 1.98952e-13 10.8 2.27374e-13 -3.85003 -1.91541 -2.45798 5 17 0 -1.28058 -7.31533 5.92478 6.45 5.68434e-14 0 -1.57156 1.2921 4.28274 6.45 0 -2.27374e-13 37.4038 -39.2509 14.0199 0 -32.4 -2 -26.8222 -40.3645 -25.5295 -1.13687e-13 -25.65 2 5.57873 4.94089 2.64891 -0.5 -1.5 2.65 -1.22534 -13.0536 33.652 -1.13687e-13 -3.8 3.7 0.769033 -0.0670674 0.817147 1.13687e-13 -3 2.7 0.00921767 17.2478 0.0064191 2.27374e-13 -1.9 1.6 1.68784e-06 4.42301e-06 -4.58911e-06 0 -8.3 1.9 -1.34248 -5.77523 -0.111523 2.55795e-13 -4.5 0 -0.0668531 -0.198601 -0.0251001 0 -3.4 1.13687e-13 0.0205867 -0.0384038 -0.0262545 -0.25 -2.2 0.4 1.68784e-06 4.42301e-06 -4.58911e-06 1.98952e-13 -8.3 1 -14.7452 -17.1309 -1.31245 0 -4.65 1.13687e-13 -37.3897 0.161517 -0.212056 2.27374e-13 -3.3 2.27374e-13 7.67669 -0.00409819 0.00514726 -0.5 -2.15 -0.8 1.68784e-06 4.42301e-06 -4.58911e-06 -1.13687e-13 -7.75 -0.2 -4.72161 -13.349 0.0348298 2.84217e-14 -3.8 1.13687e-13 -0.288484 0.119509 0.0111708 -5.68434e-14 -3.4 -2.27374e-13 -26.0034 -0.0296472 -0.0277322 -0.75 -1.75 -1.85 1.68784e-06 4.42301e-06 -4.58911e-06 -1.98952e-13 -7.15 -1 -7.39618 -20.5166 -0.229591 -5.68434e-14 -3 0 -0.180949 -0.0268672 0.190814 5.68434e-14 -2.35 0 -1.03678e-05 -0.020242 0.193788 -5 17 -2.27374e-13 2.21482 -3.62658 -4.03093 -6.45 0 0 -1.79687 -0.894479 -1.92973 -6.45 0 0 -35.1669 -55.3446 1.42899 -5.68434e-14 -32.4 -2 -28.1872 -48.0602 -61.8075 -1.13687e-13 -25.65 2 -40.0245 -10.1007 -13.0793 0.5 -1.5 2.65 -38.0553 -12.1784 30.7615 0 -3.8 3.7 -9.82428 27.7747 -2.7847 2.27374e-13 -3 2.7 -1.38053 68.6568 1.44416 0 -1.9 1.6 -5.27495e-06 1.81908e-05 -3.9998e-06 2.27374e-13 -8.3 1.9 11.5664 17.1602 -1.93602 -1.13687e-13 -4.5 0 16.4682 3.58549 -0.0248779 5.68434e-13 -3.4 -8.52651e-14 14.0268 0.00115631 -0.0700777 0.25 -2.2 0.4 -5.27495e-06 1.81908e-05 -3.9998e-06 0 -8.3 1 36.116 17.2289 -6.9465 -1.13687e-13 -4.65 5.68434e-14 0.147708 0.0813424 -0.0269557 5.68434e-14 -3.3 -2.84217e-14 5.33318e-05 -0.00674497 0.0335836 0.5 -2.15 -0.8 -5.27495e-06 1.81908e-05 -3.9998e-06 2.27374e-13 -7.75 -0.2 47.7802 13.7731 -8.77127 1.98952e-13 -3.8 0 9.6957 8.62378 0.545859 8.52651e-14 -3.4 -1.42109e-14 14.0328 -0.0296606 -0.0239054 0.75 -1.75 -1.85 -5.27495e-06 1.81908e-05 -3.9998e-06 0 -7.15 -1 61.9477 -0.0019567 -4.81235 -5.68434e-14 -3 1.13687e-13 4.85072 2.97154 0.0981637 0 -2.35 1.13687e-13 6.08005 -0.0322758 -0.0688722 8 -5.68434e-14 2.27374e-13 56.7256 -20.2798 21.0992 -1.13687e-13 -45 -1 -72.5197 38.3253 44.0501 0 -41 -2 21.6552 0.112074 25.2155 -2.27374e-13 -7.5 12.5 2.20591e-06 7.25444e-05 -9.96523e-06 0 0 4 3.49276 0.445139 3.26208 -8 0 0 21.5612 -41.6899 0.593821 0 -45 -1 -86.2524 22.7687 74.8534 0 -41 -2 51.8119 -3.88557 13.0995 1.13687e-13 -7.5 12.5 -0.0114603 -18.1823 -0.00923915 0 0 4 -9.37919 14.5058 56.0714 
-237.067 73.6702 1695.12 -8.09312 8.46055 171.737 -5.68434e-14 8 0 10.4706 15.8551 -7.86122 0 8 0 0.708158 8.45433 2.58802 0 8 2.27374e-13 0.401359 4.23035 1.30789 2.84217e-14 8 2.27374e-13 0.40024 4.21741 1.30301 0 17 0 -1.63757 -0.836318 -0.992558 1.98952e-13 10.8 -2.27374e-13 -3.8746 -1.9435 -2.35447 5 17 0 -1.28907 -7.35565 5.92273 6.45 0 -2.27374e-13 -1.57801 1.28059 4.2771 6.45 -5.68434e-14 0 37.4927 -39.2782 14.1524 -5.68434e-14 -32.4 -2 -26.8739 -40.423 -25.5842 -1.13687e-13 -25.65 2 5.74328 5.00346 2.67718 -0.5 -1.5 2.65 -1.44862 -13.1519 33.7114 -5.68434e-14 -3.8 3.7 0.755613 -0.0996286 0.80836 5.68434e-14 -3 2.7 0.00926594 16.8354 0.00640495 1.7053e-13 -1.9 1.6 1.68784e-06 4.42301e-06 -4.58911e-06 -5.68434e-14 -8.3 1.9 -1.40895 -6.15624 -0.119007 1.98952e-13 -4.5 1.13687e-13 -0.0668542 -0.201144 -0.0251001 -2.84217e-14 -3.4 0 0.0205867 -0.0384038 -0.0262545 -0.25 -2.2 0.4 1.68784e-06 4.42301e-06 -4.58911e-06 1.7053e-13 -8.3 1 -15.3381 -17.486 -1.40869 5.68434e-14 -4.65 1.13687e-13 -37.3897 0.163108 -0.214186 -2.27374e-13 -3.3 2.27374e-13 7.94434 -0.00409819 0.00514726 -0.5 -2.15 -0.8 1.68784e-06 4.42301e-06 -4.58911e-06 -1.13687e-13 -7.75 -0.2 -4.84197 -13.5458 0.0255641 0 -3.8 0 -0.288484 0.119509 0.0111708 0 -3.4 -2.27374e-13 -26.0034 -0.0296472 -0.0277322 -0.75 -1.75 -1.85 1.68784e-06 4.42301e-06 -4.58911e-06 -2.27374e-13 -7.15 -1 -7.59477 -20.7326 -0.249736 -1.7053e-13 -3 0 -0.180949 -0.0268672 0.190814 -5.68434e-14 -2.35 0 -1.03678e-05 -0.020242 0.193788 -5 17 0 2.21497 -3.6362 -4.01799 -6.45 0 -2.27374e-13 -1.79663 -0.894337 -1.94646 -6.45 0 -2.27374e-13 -34.8482 -55.5168 1.91341 -5.68434e-14 -32.4 -2 -28.6373 -47.9767 -62.1386 -1.13687e-13 -25.65 2 -40.0973 -10.0168 -13.0381 0.5 -1.5 2.65 -38.0094 -12.0903 30.6876 -2.27374e-13 -3.8 3.7 -9.79212 27.7127 -2.79075 2.27374e-13 -3 2.7 -1.38053 68.6568 1.44416 0 -1.9 1.6 -5.27495e-06 1.81908e-05 -3.9998e-06 0 -8.3 1.9 11.5188 17.1199 -1.92356 1.13687e-13 -4.5 0 16.2956 3.54514 -0.0248768 5.68434e-13 -3.4 -1.13687e-13 13.9022 0.00115631 -0.0700777 0.25 -2.2 0.4 -5.27495e-06 1.81908e-05 -3.9998e-06 0 -8.3 1 36.0181 17.1924 -6.91354 0 -4.65 8.52651e-14 0.147708 0.0813424 -0.0269557 0 -3.3 0 5.33318e-05 -0.00674497 0.0335836 0.5 -2.15 -0.8 -5.27495e-06 1.81908e-05 -3.9998e-06 4.54747e-13 -7.75 -0.2 47.6794 13.7365 -8.73163 2.27374e-13 -3.8 0 9.66385 8.59318 0.541247 1.13687e-13 -3.4 0 13.9924 -0.0296606 -0.0239054 0.75 -1.75 -1.85 -5.27495e-06 1.81908e-05 -3.9998e-06 0 -7.15 -1 61.8223 -0.0318795 -4.77292 -5.68434e-14 -3 0 4.82093 2.95283 0.098162 0 -2.35 0 6.04512 -0.0322758 -0.0688722 8 0 2.27374e-13 56.6962 -20.2287 21.0092 0 -45 -1 -72.5262 38.3369 44.1205 0 -41 -2 21.3747 0.234761 25.4658 -2.27374e-13 -7.5 12.5 2.20591e-06 7.25444e-05 -9.96523e-06 0 0 4 3.76773 0.456272 3.30329 -8 0 -2.27374e-13 21.6289 -41.8482 0.55594 -2.84217e-14 -45 -1 -86.6312 22.7427 75.1377 1.13687e-13 -41 -2 51.6592 -4.29122 13.2111 1.13687e-13 -7.5 12.5 -0.0114335 -18.0241 -0.00923081 0 0 4 -9.38307 14.4992 56.0792 
-237.054 73.512 1695 -8.17827 8.3499 171.721 -2.84217e-14 8 0 10.442 15.839 -7.90928 2.84217e-14 8 0 0.677122 8.4505 2.59231 0 8 2.27374e-13 0.385898 4.22859 1.31011 -2.84217e-14 8 2.27374e-13 0.384769 4.21571 1.30437 0 17 -2.27374e-13 -1.64738 -0.844356 -0.952703 2.27374e-13 10.8 0 -3.89688 -1.96486 -2.26205 5 17 -2.27374e-13 -1.29806 -7.39107 5.93019 6.45 0 0 -1.5847 1.27045 4.27104 6.45 -5.68434e-14 0 37.5712 -39.3352 14.2101 0 -32.4 -2 -26.9125 -40.4683 -25.6368 -5.68434e-14 -25.65 2 5.84456 5.0925 2.66805 -0.5 -1.5 2.65 -1.622 -13.2358 33.8224 -5.68434e-14 -3.8 3.7 0.744822 -0.125109 0.801743 1.13687e-13 -3 2.7 0.00931368 16.4258 0.00639129 1.98952e-13 -1.9 1.6 1.68784e-06 4.42301e-06 -4.58911e-06 2.84217e-14 -8.3 1.9 -1.47634 -6.53161 -0.127186 1.7053e-13 -4.5 0 -0.0668566 -0.203672 -0.0254617 -2.84217e-14 -3.4 0 0.0205867 -0.0384038 -0.0262545 -0.25 -2.2 0.4 1.68784e-06 4.42301e-06 -4.58911e-06 2.55795e-13 -8.3 1 -15.9038 -17.8163 -1.50452 1.13687e-13 -4.65 1.13687e-13 -37.3897 0.164679 -0.216283 0 -3.3 2.27374e-13 8.11803 -0.00409819 0.00514726 -0.5 -2.15 -0.8 1.68784e-06 4.42301e-06 -4.58911e-06 -1.7053e-13 -7.75 -0.2 -4.94622 -13.7203 0.016193 2.84217e-14 -3.8 5.68434e-14 -0.288484 0.120075 0.0111708 -5.68434e-14 -3.4 -2.27374e-13 -26.0034 -0.0296472 -0.0281224 -0.75 -1.75 -1.85 1.68784e-06 4.42301e-06 -4.58911e-06 -2.27374e-13 -7.15 -1 -7.75892 -20.9088 -0.266938 -1.7053e-13 -3 5.68434e-14 -0.180949 -0.0268672 0.190814 0 -2.35 0 -1.03678e-05 -0.020242 0.193788 -5 17 -2.27374e-13 2.21506 -3.64512 -4.00686 -6.45 -1.13687e-13 -2.27374e-13 -1.79564 -0.894279 -1.96358 -6.45 0 -2.27374e-13 -34.52 -55.6756 2.38332 -8.52651e-14 -32.4 -2 -29.111 -47.9139 -62.4981 -5.68434e-14 -25.65 2 -40.1083 -9.94333 -12.9537 0.5 -1.5 2.65 -38.0235 -12.0129 30.6369 -2.27374e-13 -3.8 3.7 -9.77095 27.6718 -2.79461 0 -3 2.7 -1.38053 68.6568 1.44416 0 -1.9 1.6 -5.27495e-06 1.81908e-05 -3.9998e-06 -2.27374e-13 -8.3 1.9 11.528 17.0737 -1.91937 1.13687e-13 -4.5 0 16.1199 3.50411 -0.0248757 3.41061e-13 -3.4 -5.68434e-14 13.7762 0.00104945 -0.0700777 0.25 -2.2 0.4 -5.27495e-06 1.81908e-05 -3.9998e-06 0 -8.3 1 36.0132 17.1513 -6.89791 -1.13687e-13 -4.65 0 0.147708 0.0813424 -0.0269557 1.7053e-13 -3.3 -8.52651e-14 5.33318e-05 -0.00674497 0.0335836 0.5 -2.15 -0.8 -5.27495e-06 1.81908e-05 -3.9998e-06 0 -7.75 -0.2 47.6467 13.704 -8.7087 2.27374e-13 -3.8 0 9.62087 8.55187 0.535247 1.42109e-13 -3.4 0 13.9381 -0.0296606 -0.0239054 0.75 -1.75 -1.85 -5.27495e-06 1.81908e-05 -3.9998e-06 2.27374e-13 -7.15 -1 61.7814 -0.0477988 -4.7566 -5.68434e-14 -3 0 4.83302 2.96033 0.0987586 5.68434e-14 -2.35 0 6.05861 -0.0322758 -0.0688722 8 0 2.27374e-13 56.6893 -20.1772 20.9557 0 -45 -1 -72.5563 38.3477 44.1949 0 -41 -2 21.0431 0.373355 25.6842 -2.27374e-13 -7.5 12.5 2.20591e-06 7.25444e-05 -9.96523e-06 0 0 4 4.07468 0.474623 3.34484 -8 0 -2.27374e-13 21.7032 -42.0069 0.505463 -1.42109e-14 -45 -1 -86.9993 22.712 75.3229 0 -41 -2 51.4039 -4.77229 13.3794 1.13687e-13 -7.5 12.5 -0.0113756 -17.6818 -0.00921307 0 0 4 -9.38726 14.4929 56.0843 
